HIERARCHY
ROOT Hips
{
	OFFSET 0.000000 0.000000 0.000000 
	CHANNELS 6 Xposition Yposition Zposition Yrotation Zrotation Xrotation 
	JOINT Lumbar
	{
		OFFSET 0.000000 0.000000 0.000000 
		CHANNELS 3 Zrotation Xrotation Yrotation
		JOINT Neck
		{
			OFFSET 0.000000 0.445665 0.000000 
			CHANNELS 3 Zrotation Xrotation Yrotation
			End Site
			{
				OFFSET 0.000000 0.227535 0.000000 
			}
		}
		JOINT RightShoulder
		{
			OFFSET 0.019635 0.377685 0.194865 
			CHANNELS 3 Zrotation Xrotation Yrotation
			JOINT RightElbow
			{
				OFFSET 0.000000 -0.243375 0.000000 
				CHANNELS 2 Zrotation Yrotation
				JOINT RightWrist
				{
					OFFSET 0.000000 -0.264825 0.000000 
					CHANNELS 2 Zrotation Xrotation
					End Site
					{
						OFFSET 0.006600 -0.176220 0.000990 
					}
				}
			}
		}
		JOINT LeftShoulder
		{
			OFFSET 0.019635 0.377685 -0.194865 
			CHANNELS 3 Zrotation Xrotation Yrotation
			JOINT LeftElbow
			{
				OFFSET 0.000000 -0.243375 0.000000 
				CHANNELS 2 Zrotation Yrotation
				JOINT LeftWrist
				{
					OFFSET 0.000000 -0.264825 0.000000 
					CHANNELS 2 Zrotation Xrotation
					End Site
					{
						OFFSET 0.006600 -0.176220 -0.000990 
					}
				}
			}
		}
	}
	JOINT RightHip
	{
		OFFSET 0.052140 -0.069960 0.075570 
		CHANNELS 3 Zrotation Xrotation Yrotation
		JOINT RightKnee
		{
			OFFSET 0.000000 -0.402270 0.000000 
			CHANNELS 1 Zrotation
			JOINT RightAnkle
			{
				OFFSET 0.000000 -0.404085 0.000000 
				CHANNELS 3 Zrotation Xrotation Yrotation
				End Site
				{
					OFFSET 0.204105 -0.089430 0.008415 
				}
			}
		}
	}
	JOINT LeftHip
	{
		OFFSET 0.052140 -0.069960 -0.075570 
		CHANNELS 3 Zrotation Xrotation Yrotation
		JOINT LeftKnee
		{
			OFFSET 0.000000 -0.402270 0.000000 
			CHANNELS 1 Zrotation
			JOINT LeftAnkle
			{
				OFFSET 0.000000 -0.404085 0.000000 
				CHANNELS 3 Zrotation Xrotation Yrotation
				End Site
				{
					OFFSET 0.204105 -0.089430 -0.008415 
				}
			}
		}
	}
}
MOTION
Frames: 17
Frame Time: 0.02
-0.0001 -2e-05 0.00032 22.66472 -23.23085 -7.01133 43.14809 3.29146 -4.87108 -15.41781 -1.11749 -0.44987 39.34964 -101.09076 64.16832 8.13653 92.18693 7.90287 -0.08739 41.96136 101.42811 -64.16806 7.4751 -88.3993 5.62717 0.51567 37.16431 -2.20919 -2.96947 -22.15477 -6.95138 -3.77147 -2.62699 41.38171 9.11388 1.25895 -27.46096 -7.0385 3.56087 2.53716
-0 -1e-05 0.00017 22.66154 -23.22542 -7.0154 43.14305 3.29879 -4.85508 -15.42597 -1.11719 -0.4501 39.44587 -101.06743 64.16861 8.11672 92.18575 7.93911 -0.08866 42.07918 101.42035 -64.16806 7.46625 -88.43359 5.66974 0.52419 37.14594 -2.2267 -3.04839 -22.15453 -6.94682 -3.76109 -2.62007 41.36384 9.11214 1.26118 -27.46295 -7.03762 3.56509 2.53777
9e-05 -0 2e-05 22.65836 -23.22003 -7.01944 43.13801 3.30612 -4.8391 -15.4341 -1.11689 -0.45034 39.54171 -101.04419 64.1689 8.09701 92.18457 7.9752 -0.08995 42.19695 101.41261 -64.16806 7.45743 -88.46777 5.71217 0.53267 37.12767 -2.24419 -3.12722 -22.15432 -6.94226 -3.75072 -2.61317 41.34605 9.11038 1.26331 -27.46494 -7.03674 3.5693 2.53838
0.00019 0 -0.00013 22.65518 -23.21462 -7.02349 43.13299 3.31344 -4.82314 -15.44224 -1.11659 -0.45057 39.63761 -101.02093 64.16918 8.07726 92.18339 8.01132 -0.09122 42.31447 101.40487 -64.16806 7.4486 -88.50196 5.75462 0.54116 37.10936 -2.26165 -3.20594 -22.15409 -6.93772 -3.74037 -2.60628 41.32823 9.10864 1.26553 -27.46693 -7.03586 3.57351 2.53899
0.00028 1e-05 -0.00029 22.65203 -23.20918 -7.02758 43.12797 3.32073 -4.80719 -15.45041 -1.11627 -0.45081 39.73399 -100.99759 64.16947 8.05741 92.18221 8.04758 -0.09246 42.43189 101.39711 -64.16806 7.43975 -88.53628 5.79719 0.54971 37.09095 -2.27909 -3.28468 -22.15382 -6.93317 -3.73002 -2.59938 41.31034 9.10694 1.26784 -27.4689 -7.03497 3.57773 2.5396
0.00037 2e-05 -0.00044 22.64879 -23.20389 -7.03152 43.1229 3.32816 -4.79114 -15.45848 -1.11603 -0.45104 39.82872 -100.97453 64.16976 8.03799 92.18102 8.0833 -0.09385 42.55038 101.38941 -64.16807 7.43099 -88.57017 5.8393 0.55805 37.07296 -2.29667 -3.36367 -22.15375 -6.92861 -3.7196 -2.59247 41.29275 9.10506 1.26957 -27.47094 -7.03413 3.58195 2.54023
0.00047 3e-05 -0.00059 22.64568 -23.19829 -7.03574 43.11795 3.3353 -4.77529 -15.46674 -1.11564 -0.45127 39.92649 -100.95093 64.17005 8.01769 92.17984 8.12011 -0.09495 42.66664 101.38158 -64.16806 7.42201 -88.60488 5.88238 0.56678 37.05412 -2.31399 -3.44212 -22.15328 -6.92407 -3.70931 -2.58558 41.27453 9.10353 1.27256 -27.47284 -7.03318 3.58615 2.5408
0.00056 3e-05 -0.00074 22.64254 -23.19301 -7.03973 43.11287 3.3427 -4.75931 -15.47482 -1.11538 -0.45151 40.0218 -100.92784 64.17033 7.99829 92.17867 8.15585 -0.09629 42.78484 101.3739 -64.16806 7.41335 -88.63883 5.9244 0.57516 37.03611 -2.33148 -3.52099 -22.15319 -6.91952 -3.69894 -2.57869 41.25697 9.10169 1.27423 -27.47487 -7.03235 3.59037 2.54144
0.00066 4e-05 -0.00089 22.63899 -23.18798 -7.04332 43.1077 3.35046 -4.74292 -15.48269 -1.11532 -0.45174 40.11277 -100.90533 64.17062 7.97963 92.17746 8.19055 -0.09802 42.906 101.3663 -64.16809 7.40461 -88.67186 5.96581 0.58307 37.01893 -2.34947 -3.60075 -22.1535 -6.91493 -3.68834 -2.57171 41.23992 9.09942 1.27488 -27.47706 -7.0316 3.59459 2.54213
0.00076 5e-05 -0.00105 22.6367 -23.1811 -7.04887 43.10325 3.35631 -4.72813 -15.49182 -1.11423 -0.45198 40.22471 -100.87934 64.17092 7.95561 92.17633 8.23206 -0.09781 43.01193 101.35795 -64.16803 7.39493 -88.71025 6.01275 0.59359 36.99644 -2.36547 -3.67651 -22.1513 -6.91047 -3.67867 -2.565 41.21904 9.09946 1.28319 -27.47836 -7.03021 3.59877 2.54244
0.00083 6e-05 -0.00118 22.63244 -23.17837 -7.05049 43.09715 3.36607 -4.71044 -15.49823 -1.11521 -0.45221 40.29496 -100.86078 64.17117 7.94362 92.17511 8.25865 -0.10151 43.1488 101.35137 -64.1681 7.38811 -88.73729 6.04673 0.59867 36.98549 -2.38508 -3.75998 -22.15452 -6.90581 -3.66726 -2.55786 41.20683 9.09475 1.27421 -27.48151 -7.03026 3.60306 2.54357
0.0008 8e-05 -0.00127 22.61729 -23.18494 -7.03961 43.08738 3.38773 -4.68093 -15.49777 -1.12298 -0.45241 40.22866 -100.86212 64.17124 7.95969 92.17304 8.24727 -0.1174 43.38208 101.34804 -64.16872 7.38263 -88.73296 6.05502 0.58801 37.00339 -2.41972 -3.87119 -22.17183 -6.89996 -3.64919 -2.54847 41.21349 9.07596 1.22719 -27.48996 -7.03352 3.60728 2.54679
0.00074 0.00011 -0.00132 22.60127 -23.19597 -7.02508 43.07573 3.4131 -4.64924 -15.49453 -1.13263 -0.4526 40.12464 -100.87105 64.17113 7.98931 92.17104 8.21961 -0.13692 43.64485 101.34679 -64.16921 7.38169 -88.71721 6.04811 0.57207 37.03326 -2.45707 -3.98918 -22.19473 -6.89401 -3.62969 -2.53884 41.22966 9.05272 1.16146 -27.50022 -7.03834 3.61162 2.55081
0.00069 0.00013 -0.00136 22.58911 -23.20644 -7.01339 43.06449 3.43604 -4.62109 -15.49215 -1.14071 -0.4528 40.05229 -100.87678 64.17125 8.01525 92.16933 8.19843 -0.15382 43.88591 101.34565 -64.16988 7.38233 -88.70694 6.04213 0.55902 37.05961 -2.48979 -4.09942 -22.21562 -6.88855 -3.6121 -2.53003 41.24477 9.03205 1.09763 -27.50957 -7.04295 3.6162 2.55459
0.00064 0.00015 -0.0015 22.56194 -23.2111 -6.99683 43.0554 3.4622 -4.58216 -15.49128 -1.15183 -0.45299 39.91837 -100.88131 64.17124 8.02848 92.16604 8.18416 -0.17484 44.15983 101.34009 -64.1709 7.36571 -88.69573 6.0628 0.54373 37.07839 -2.53674 -4.2283 -22.23434 -6.88131 -3.58928 -2.51828 41.24649 9.00854 1.06 -27.51941 -7.04554 3.61976 2.55798
0.00058 0.00018 -0.00142 22.56632 -23.22846 -6.9894 43.04104 3.48245 -4.5652 -15.48684 -1.15703 -0.45319 39.90396 -100.89034 64.17085 8.07425 92.16635 8.14779 -0.18811 44.37513 101.34421 -64.17007 7.38849 -88.6834 6.02254 0.53206 37.11516 -2.55482 -4.32134 -22.25884 -6.87764 -3.57689 -2.51252 41.2779 8.99054 0.96541 -27.52852 -7.05261 3.6252 2.56221
0.00051 0.00023 -0.00073 22.65379 -23.28369 -7.00915 43.01568 3.48622 -4.60888 -15.47132 -1.14568 -0.4534 40.22939 -100.90776 64.17191 8.18298 92.17235 8.08827 -0.17891 44.40087 101.37433 -64.17256 7.49912 -88.67389 5.83434 0.5296 37.20392 -2.49113 -4.30117 -22.29841 -6.88467 -3.59478 -2.5241 41.39286 8.98316 0.69979 -27.53621 -7.07272 3.63828 2.57017
